<svg version="1.1" xmlns="http://www.w3.org/2000/svg" xmlns:xlink="http://www.w3.org/1999/xlink" width="1010.34881" height="700" viewBox="390,76,1010.34881,700"><g id="document" fill="#ffffff" fill-rule="nonzero" stroke="#000000" stroke-width="0" stroke-linecap="butt" stroke-linejoin="miter" stroke-miterlimit="10" stroke-dasharray="" stroke-dashoffset="0" font-family="none" font-weight="none" font-size="none" text-anchor="none" style="mix-blend-mode: normal"><rect x="390" y="54.28571" transform="scale(1,1.4)" width="700" height="500" id="Shape 1 1" vector-effect="non-scaling-stroke"/></g><g fill="none" fill-rule="nonzero" stroke="#000000" stroke-width="none" stroke-linecap="round" stroke-linejoin="round" stroke-miterlimit="10" stroke-dasharray="" stroke-dashoffset="0" font-family="none" font-weight="none" font-size="none" text-anchor="none" style="mix-blend-mode: normal"><g id="stage"><g id="layer1 1"><path d="M1071.60159,737.65991" id="Path 1" fill="none" stroke-width="1"/><path d="M1400.34881,671.89856" id="Path 1" fill-opacity="0" fill="#000000" stroke-width="7"/><path d="M545.84018,553.11261c29.78758,-17.43346 54.28641,-41.70508 78.03076,-66.49085c50.2816,-52.48695 92.0992,-114.1668 123.50447,-179.71151c15.96578,-33.32155 28.00676,-68.82079 37.27676,-104.56971c2.87187,-11.07509 5.33862,-22.25912 7.0832,-33.56985c0.61098,-3.96119 1.10855,-7.93836 1.50062,-11.927c0.01375,-0.13985 0.50643,-5.47533 0.42252,-5.35534c-4.05557,5.79965 -5.10382,16.30751 -6.45209,23.0715c-3.98428,19.98837 -6.66371,40.33591 -8.74558,60.60299c-7.69463,74.90759 -6.07326,149.33096 -1.16514,224.32165c0.23017,3.3447 0.47533,6.68729 0.75347,10.02843c0.0691,0.83003 1.03981,2.36693 0.21596,2.48934c-1.27115,0.18887 -7.2313,-3.48767 -8.22245,-4.16415c-8.10575,-5.53234 -14.60748,-13.20372 -21.59996,-20.00025c-18.74232,-18.2171 -40.86036,-31.18355 -67.0694,-34.82224c-39.83478,-5.53038 -82.27341,7.77677 -104.17096,43.09786c-9.18236,14.81129 -14.60369,31.75511 -17.32766,48.8966c-8.00297,50.36139 11.53427,105.83113 61.60419,126.03544c8.87983,3.58321 18.24089,5.82303 27.77376,6.70312c9.90135,0.91411 19.94033,0.35974 29.68242,-1.63453c38.54777,-7.89096 66.9546,-36.90072 91.60096,-65.634" id="Path 1" fill-opacity="0" fill="#000000" stroke-width="7"/><path d="M639.36409,504.68394c0.47766,8.90163 0.95556,17.80067 1.56389,26.69453" id="Path 1" fill-opacity="0" fill="#000000" stroke-width="7"/><path d="M693.32846,502.3192c0.22677,10.25837 0.51308,20.47555 1.36137,30.70347" id="Path 1" fill-opacity="0" fill="#000000" stroke-width="7"/></g></g></g></svg>